<?xml version="1.0" encoding="utf-8"?>
<!-- Generator: Adobe Illustrator 16.0.4, SVG Export Plug-In . SVG Version: 6.00 Build 0)  -->
<!DOCTYPE svg PUBLIC "-//W3C//DTD SVG 1.1//EN" "http://www.w3.org/Graphics/SVG/1.1/DTD/svg11.dtd">
<svg version="1.1" id="Layer_1" xmlns="http://www.w3.org/2000/svg" xmlns:xlink="http://www.w3.org/1999/xlink" x="0px" y="0px"
	 width="345.83px" height="85.04px" viewBox="0 0 345.83 85.04" enable-background="new 0 0 345.83 85.04" xml:space="preserve">
<path fill="#0067C6" d="M294.115,16.876c-0.332,0-0.724,0.202-0.912,0.468l-8.509,11.276c-0.73,1.058-1.855,2.587-2.29,3.177
	c0-1.269,0-14.212,0-14.212c0-0.392-0.325-0.71-0.725-0.71h-7.838c-0.399,0-0.725,0.318-0.725,0.71v34.988
	c0,0.391,0.325,0.71,0.725,0.71h7.838c0.399,0,0.725-0.319,0.725-0.71V42.002c0-0.159,0.098-0.425,0.2-0.549
	c0.001-0.001,2.745-3.306,2.746-3.307l9.139,14.637c0.166,0.283,0.552,0.501,0.893,0.501h9.335c0.225,0,0.406-0.095,0.498-0.26
	c0.09-0.163,0.075-0.362-0.04-0.547c-0.003-0.005-13.036-19.985-13.036-19.985c-0.053-0.084-0.042-0.254,0.025-0.337
	c0.002-0.002,11.465-14.473,11.465-14.473c0.14-0.173,0.176-0.371,0.096-0.54c-0.081-0.17-0.261-0.267-0.493-0.267H294.115z"/>
<path fill="#0067C6" d="M130.388,16.173c-11.433,0-19.418,7.861-19.418,19.114c0,11.113,7.545,18.58,18.775,18.58h0.059
	c11.867,0,19.535-7.546,19.535-19.222C149.339,25.451,143.479,16.173,130.388,16.173z M130.155,46.928h-0.06
	c-5.563,0-9.301-4.763-9.301-11.854c0-5.955,2.895-11.962,9.36-11.962c6.384,0,9.242,5.927,9.242,11.802
	C139.397,42.212,135.77,46.928,130.155,46.928z"/>
<path fill="#0067C6" d="M154.857,16.761c-0.505,0-0.915,0.406-0.915,0.906v34.705c0,0.499,0.41,0.907,0.915,0.907h23.202
	c0.505,0,0.915-0.408,0.915-0.907v-5.501c0-0.499-0.41-0.904-0.915-0.904c0,0-13.5,0-14.076,0c-0.432,0-0.685-0.34-0.685-0.686
	c0-0.345,0-27.614,0-27.614c0-0.5-0.411-0.906-0.915-0.906H154.857z"/>
<path fill="#0067C6" d="M184.539,16.761c-0.504,0-0.914,0.406-0.914,0.906v34.705c0,0.499,0.41,0.907,0.914,0.907h7.527
	c0.505,0,0.915-0.408,0.915-0.907V17.667c0-0.5-0.41-0.906-0.915-0.906H184.539z"/>
<path fill="#0067C6" d="M226.207,16.761c-0.518,0-0.938,0.414-0.938,0.921v9.796c0,4.91,0.553,12.709,0.657,14.159
	c-2.027-4.165-5.906-10.877-5.947-10.949l-0.729-1.191c0,0-7.75-12.046-7.75-12.046c-0.248-0.386-0.809-0.69-1.277-0.69h-9.396
	c-0.517,0-0.938,0.414-0.938,0.921v34.675c0,0.508,0.421,0.922,0.938,0.922h7.09c0.519,0,0.939-0.414,0.939-0.922V42.188
	c0-5.822-0.393-15.011-0.396-15.102c-0.001-0.025-0.002-0.049-0.002-0.072c0-0.009,0.003-0.013,0.003-0.022
	c2.049,4.283,6.479,11.599,6.524,11.676l0.73,1.181l8.006,12.733c0.246,0.391,0.584,0.697,1.272,0.697h8.308
	c0.518,0,0.938-0.414,0.938-0.922V17.683c0-0.508-0.42-0.921-0.938-0.921H226.207z"/>
<path fill="#0067C6" d="M239.729,27.104c-0.037,4.958,3.754,8.578,11.59,11.062c4.967,1.526,6.806,2.842,6.793,4.857
	c-0.018,2.367-2.357,3.708-6.416,3.677c-4.021-0.031-9.09-1.803-9.873-2.092c-0.785-0.289-0.963,0.546-0.963,0.546l-1.603,5.397
	c-0.145,0.484,0.14,1.01,0.636,1.172c0.063,0.021,6.445,2.089,11.191,2.125c12.536,0.094,17.046-5.768,17.088-11.285
	c0.04-5.21-3.306-8.637-10.846-11.109c-5.251-1.797-7.552-2.812-7.535-4.969c0.01-1.616,1.826-3.23,5.854-3.2
	c3.933,0.029,7.862,1.496,7.902,1.51c0.239,0.091,0.498,0.082,0.727-0.028c0.221-0.106,0.386-0.291,0.462-0.523
	c0,0,1.48-4.351,1.712-5.081c0.231-0.73-0.067-1.169-0.805-1.432c-1.106-0.396-5.228-1.545-9.818-1.545
	C246.246,16.187,239.777,20.503,239.729,27.104z"/>
<path fill="#0067C6" d="M74.248,52.32c0,0-11.841-34.75-11.841-34.75c-0.154-0.454-0.549-0.809-1.122-0.809c0,0-9.736,0-10.28,0
	c-0.544,0-0.967,0.356-1.119,0.812L38.272,52.32c-0.082,0.244-0.052,0.489,0.08,0.673c0.13,0.181,0.35,0.286,0.602,0.286h7.883
	c0.478,0,0.961-0.363,1.099-0.826l2.358-7.936c0.078-0.263,0.263-0.493,0.717-0.493h9.863c0.443,0,0.646,0.23,0.733,0.493
	l2.612,7.948c0.15,0.456,0.641,0.813,1.116,0.813h8.234c0.252,0,0.472-0.104,0.602-0.286C74.302,52.81,74.33,52.564,74.248,52.32z
	 M60.589,37.377c-0.132,0.183-0.353,0.287-0.604,0.287h-7.356c-0.251,0-0.472-0.104-0.605-0.285
	c-0.135-0.184-0.168-0.429-0.091-0.674c0,0,2.475-7.901,2.476-7.905c0.815-2.444,0.925-2.65,1.179-3.26
	c0.253-0.609,0.996-0.651,1.239-0.032s0.334,0.755,1.148,3.26c0,0,2.7,7.933,2.702,7.937C60.754,36.949,60.723,37.195,60.589,37.377
	z"/>
<path fill="#0067C6" d="M110.335,52.3c0-0.001-1.71-2.622-3.888-5.96c-0.34-0.521-0.691-1.061-1.049-1.609
	c-1.847-2.832-3.87-5.933-5.434-8.331c3.414-1.286,7.1-5.015,7.1-9.461c0-3.339-1.272-5.94-3.783-7.732
	c-2.728-2.026-9-2.64-13.721-2.683c-4.5-0.041-9.417,0.112-10.114,0.187c-0.503,0.055-1.154,0.168-1.16,1.078
	c-0.003,0.515-0.009,26.232-0.009,26.26V52.4c0,0.361,0.296,0.656,0.658,0.656h8.005c0.362,0,0.657-0.295,0.657-0.656
	c0,0-0.004-8.439-0.013-8.482c0-1.823,0.04-4.201,0.04-4.534s0.197-0.501,0.502-0.501c0.304,0,2.49,0.001,2.49,0.001
	c0.408,0.006,0.486,0.078,0.789,0.521c0.303,0.443,6.224,9.963,6.224,9.963l2.021,3.237c0.122,0.208,0.439,0.501,0.893,0.501
	c0.455,0,9.335,0,9.335,0c0.224,0,0.406-0.095,0.498-0.261C110.465,52.685,110.45,52.484,110.335,52.3z M88.014,32.769
	c-0.458,0-0.662-0.292-0.662-0.792c0-0.82-0.038-7.667,0-8.327c0.037-0.661,0.467-0.795,0.504-0.803
	c0.63-0.146,1.485-0.241,3.531-0.241c4.095,0,6.551,1.711,6.551,4.975c0,3.155-2.632,5.188-7.078,5.188
	C90.861,32.769,88.347,32.769,88.014,32.769z"/>
<path fill="#0067C6" d="M343.759,52.32l-11.841-34.75c-0.153-0.454-0.55-0.809-1.122-0.809c0,0-9.735,0-10.279,0
	c-0.545,0-0.968,0.356-1.119,0.812L307.783,52.32c-0.081,0.244-0.052,0.489,0.08,0.673c0.131,0.181,0.351,0.286,0.603,0.286h7.883
	c0.479,0,0.961-0.363,1.099-0.826l2.358-7.936c0.078-0.263,0.264-0.493,0.717-0.493h9.863c0.442,0,0.646,0.23,0.733,0.493
	l2.611,7.948c0.15,0.456,0.641,0.813,1.116,0.813h8.233c0.252,0,0.473-0.104,0.602-0.286
	C343.813,52.81,343.842,52.564,343.759,52.32z M330.101,37.377c-0.132,0.183-0.353,0.287-0.604,0.287h-7.355
	c-0.252,0-0.473-0.104-0.605-0.285c-0.135-0.184-0.168-0.429-0.092-0.674c0,0,2.475-7.901,2.477-7.905
	c0.814-2.444,0.925-2.65,1.178-3.26c0.254-0.609,0.997-0.651,1.239-0.032c0.243,0.619,0.335,0.755,1.148,3.26
	c0,0,2.7,7.933,2.702,7.937C330.266,36.949,330.234,37.195,330.101,37.377z"/>
<g>
	<polygon fill="#8E9295" points="9.013,4.507 9.088,4.494 9.148,4.479 9.226,4.45 9.306,4.414 9.33,4.402 9.346,4.396 9.409,4.358 
		9.412,4.353 9.425,4.346 9.428,4.343 9.438,4.335 9.444,4.331 9.447,4.328 9.458,4.317 9.463,4.314 9.508,4.265 9.533,4.242 
		9.56,4.214 9.562,4.209 9.579,4.193 9.581,4.188 9.585,4.184 9.589,4.178 9.591,4.175 9.595,4.17 9.599,4.166 9.601,4.161 
		9.604,4.158 9.608,4.152 9.61,4.15 9.617,4.138 9.619,4.136 9.677,4.033 9.684,4.018 9.688,4.012 9.7,3.983 9.724,3.908 
		9.732,3.875 9.745,3.817 9.746,3.801 9.748,3.79 9.749,3.776 9.751,3.764 9.753,3.746 9.754,3.737 9.754,3.727 9.759,3.705 
		9.759,3.679 9.76,3.67 9.76,3.644 9.759,3.638 9.759,3.611 9.754,3.587 9.754,3.577 9.746,3.52 9.732,3.457 9.707,3.37 9.696,3.34 
		9.688,3.318 9.681,3.305 9.675,3.288 9.67,3.28 9.665,3.268 9.636,3.215 9.633,3.211 9.623,3.195 9.62,3.192 9.617,3.188 
		9.615,3.185 9.612,3.18 9.552,3.102 9.531,3.079 9.528,3.076 9.515,3.063 9.51,3.06 9.505,3.056 9.5,3.051 9.497,3.047 
		9.492,3.044 9.482,3.035 9.479,3.033 9.474,3.028 9.469,3.024 9.461,3.016 9.456,3.014 9.45,3.006 9.42,2.981 9.386,2.959 
		9.358,2.94 9.341,2.931 9.33,2.924 9.291,2.905 9.233,2.88 9.204,2.867 9.189,2.86 9.167,2.844 9.148,2.827 9.138,2.809 
		9.128,2.778 9.122,2.737 9.122,2.728 9.12,2.719 9.12,2.696 9.118,2.688 9.118,2.678 9.116,2.67 9.116,2.66 9.103,2.565 
		9.103,2.555 9.101,2.547 9.103,2.533 9.103,2.521 9.11,2.502 9.119,2.491 9.13,2.486 9.147,2.48 9.171,2.48 9.241,2.495 
		9.322,2.511 9.343,2.511 9.363,2.516 9.382,2.516 9.389,2.518 9.46,2.518 9.468,2.516 9.479,2.516 9.509,2.511 9.542,2.501 
		9.577,2.482 9.597,2.467 9.614,2.451 9.617,2.446 9.623,2.439 9.631,2.424 9.645,2.393 9.652,2.359 9.652,2.313 9.643,2.275 
		9.634,2.25 9.619,2.227 9.596,2.203 9.593,2.2 9.589,2.197 9.585,2.193 9.58,2.189 9.545,2.171 9.5,2.159 9.48,2.158 9.473,2.155 
		9.406,2.155 9.399,2.158 9.378,2.158 9.352,2.163 9.264,2.183 9.2,2.195 9.183,2.195 9.176,2.198 9.151,2.193 9.135,2.188 
		9.122,2.176 9.117,2.166 9.112,2.146 9.112,2.108 9.116,2.077 9.118,2.063 9.12,2.047 9.135,1.941 9.135,1.931 9.138,1.908 
		9.138,1.846 9.131,1.805 9.12,1.767 9.105,1.735 9.094,1.716 9.067,1.688 9.042,1.669 9.007,1.648 8.975,1.64 8.93,1.641 
		8.896,1.651 8.871,1.666 8.863,1.675 8.857,1.676 8.84,1.695 8.821,1.721 8.806,1.749 8.792,1.793 8.783,1.847 8.783,1.876 
		8.784,1.885 8.784,1.9 8.788,1.924 8.788,1.934 8.79,1.941 8.79,1.952 8.792,1.959 8.792,1.969 8.799,2.017 8.806,2.052 
		8.816,2.114 8.816,2.155 8.811,2.175 8.803,2.19 8.795,2.195 8.788,2.199 8.768,2.203 8.764,2.201 8.747,2.201 8.739,2.199 
		8.73,2.199 8.696,2.191 8.658,2.183 8.575,2.167 8.567,2.167 8.517,2.16 8.468,2.16 8.453,2.163 8.41,2.172 8.369,2.19 
		8.335,2.211 8.331,2.217 8.326,2.22 8.323,2.223 8.312,2.232 8.31,2.238 8.305,2.241 8.294,2.259 8.281,2.29 8.274,2.326 
		8.274,2.363 8.279,2.392 8.292,2.428 8.305,2.448 8.335,2.48 8.36,2.5 8.397,2.513 8.436,2.523 8.458,2.525 8.466,2.526 
		8.481,2.525 8.498,2.525 8.52,2.521 8.531,2.521 8.539,2.519 8.552,2.519 8.585,2.513 8.605,2.511 8.626,2.507 8.637,2.506 
		8.689,2.492 8.754,2.48 8.784,2.48 8.8,2.486 8.814,2.496 8.817,2.501 8.82,2.502 8.828,2.52 8.833,2.551 8.831,2.557 8.831,2.578 
		8.829,2.585 8.829,2.594 8.815,2.673 8.801,2.778 8.79,2.817 8.778,2.839 8.767,2.853 8.742,2.869 8.715,2.882 8.667,2.902 
		8.611,2.93 8.528,2.984 8.526,2.987 8.504,3.001 8.501,3.005 8.491,3.012 8.488,3.014 8.485,3.017 8.479,3.024 8.475,3.026 
		8.449,3.049 8.4,3.101 8.397,3.105 8.383,3.12 8.38,3.125 8.376,3.13 8.373,3.134 8.367,3.141 8.364,3.146 8.359,3.153 
		8.356,3.157 8.354,3.16 8.35,3.166 8.348,3.167 8.316,3.217 8.291,3.265 8.283,3.28 8.28,3.286 8.272,3.301 8.251,3.347 
		8.225,3.418 8.213,3.471 8.192,3.589 8.19,3.604 8.188,3.615 8.187,3.634 8.184,3.642 8.184,3.658 8.184,3.667 8.184,3.696 
		8.184,3.705 8.184,3.721 8.192,3.77 8.215,3.886 8.231,3.948 8.265,4.034 8.292,4.09 8.333,4.158 8.336,4.161 8.342,4.171 
		8.348,4.176 8.35,4.18 8.354,4.185 8.357,4.193 8.36,4.196 8.363,4.201 8.37,4.208 8.373,4.213 8.379,4.221 8.382,4.226 
		8.389,4.232 8.396,4.242 8.4,4.245 8.439,4.286 8.444,4.291 8.446,4.292 8.452,4.295 8.456,4.3 8.46,4.303 8.466,4.308 8.47,4.311 
		8.477,4.318 8.481,4.321 8.485,4.325 8.488,4.328 8.491,4.33 8.496,4.332 8.5,4.337 8.505,4.34 8.508,4.344 8.513,4.346 
		8.517,4.349 8.548,4.374 8.593,4.4 8.677,4.441 8.723,4.459 8.799,4.481 8.867,4.496 8.886,4.498 8.946,4.507 	"/>
	<path fill="#8E9295" d="M16.135,9.05V9.016l-0.002-0.01V8.992l-0.011-0.049L16.1,8.883l-0.038-0.079l-0.004-0.003L16.05,8.786
		l-0.003-0.003l-0.003-0.005L16.038,8.77l-0.004-0.007l-0.008-0.009l-0.003-0.005l-0.009-0.007L16.013,8.74l-0.029-0.033
		l-0.005-0.004l-0.02-0.021l-0.006-0.004l-0.005-0.005l-0.006-0.005l-0.004-0.002l-0.036-0.028l-0.023-0.011l-0.025-0.014
		l-0.042-0.014l-0.063-0.013h-0.011l-0.01-0.003h-0.016l-0.01,0h-0.053l-0.042,0.007H15.59l-0.035,0.01l-0.071,0.03l-0.013,0.007
		l-0.003,0.001l-0.023,0.014l-0.003,0.004l-0.01,0.008l-0.04,0.035l-0.059,0.059L15.33,8.763l-0.028,0.031l-0.003,0.007
		l-0.018,0.018l-0.003,0.006l-0.013,0.014l-0.003,0.006l-0.008,0.009L15.25,8.859l-0.003,0.004l-0.008,0.012L15.236,8.88
		l-0.04,0.063l-0.025,0.051l-0.011,0.019l-0.019,0.043l-0.003,0.007l-0.025,0.062l-0.077,0.198l-0.029,0.096l-0.017,0.057
		l-0.023,0.089L14.93,9.702l-0.015,0.07l-0.022,0.092l-0.019,0.053l-0.011,0.018l-0.007,0.008l-0.009,0.003l-0.007-0.001
		l-0.006-0.005l-0.009-0.011l-0.017-0.04L14.8,9.859l-0.028-0.074l-0.01-0.018L14.76,9.756L14.732,9.71l-0.003-0.003L14.726,9.7
		l-0.037-0.053l-0.046-0.051l-0.006-0.003l-0.017-0.019L14.613,9.57L14.61,9.566l-0.005-0.002l-0.005-0.007l-0.04-0.028L14.496,9.5
		l-0.07-0.018l-0.021-0.003l-0.024-0.004h-0.019l-0.009-0.003h-0.014l-0.008,0.003h-0.014l-0.008,0.002h-0.024l-0.008,0.002h-0.038
		l-0.016,0.004l-0.025,0.009l-0.044,0.022l-0.018,0.011l-0.008,0.004l-0.023,0.016L14.1,9.548L14.09,9.555l-0.007,0.009
		l-0.005,0.002L14.065,9.58l-0.006,0.003L14.056,9.59l-0.003,0.001l-0.058,0.062L13.992,9.66L13.98,9.673l-0.025,0.036l-0.016,0.028
		l-0.005,0.007l-0.022,0.058L13.9,9.841l-0.001,0.018l-0.004,0.025v0.033l-0.002,0.009v0.077l0.002,0.01v0.035l0.002,0.01v0.013
		l0.009,0.049l0.006,0.023l0.002,0.01l0.007,0.017l0.018,0.044l0.031,0.058l0.004,0.003l0.008,0.013l0.031,0.044l0.014,0.017
		l0.006,0.003l0.01,0.011l0.03,0.024l0.04,0.029l0.017,0.008l0.016,0.009l0.055,0.02l0.062,0.018l0.075,0.012h0.049l0.064-0.009
		l0.011-0.002l0.018-0.001l0.01-0.003h0.036l0.021,0.01l0.014,0.015l0.006,0.014l0.009,0.037l-0.003,0.057l-0.012,0.065
		l-0.004,0.009l-0.005,0.021l-0.006,0.016l-0.021,0.071l-0.023,0.066l-0.021,0.053l-0.005,0.008l-0.014,0.033l-0.068,0.123
		l-0.003,0.004l-0.022,0.036l-0.002,0.004l-0.004,0.006l-0.004,0.004L14.35,11.13l-0.004,0.004l-0.002,0.006l-0.006,0.006
		l-0.003,0.005l-0.036,0.049l-0.03,0.032l-0.005,0.004l-0.027,0.031l-0.006,0.003l-0.023,0.026l-0.007,0.003l-0.007,0.009
		l-0.006,0.004l-0.003,0.003l-0.006,0.003l-0.005,0.005l-0.013,0.009l-0.003,0.004l-0.004,0.004l-0.005,0.004l-0.025,0.019
		l-0.003,0.003l-0.005,0.003l-0.005,0.004l-0.005,0.004l-0.003,0.005l-0.005,0.002l-0.003,0.005l-0.017,0.011l-0.004,0.003
		l-0.058,0.041l-0.01,0.006l-0.023,0.016l-0.047,0.025l-0.08,0.034l-0.131,0.05L13.639,11.6l-0.103,0.016h-0.233l-0.018-0.002
		L13.206,11.6l-0.067-0.019l-0.065-0.026l-0.015-0.006l-0.104-0.05l-0.064-0.038l-0.002-0.002l-0.005-0.004l-0.003-0.003
		l-0.026-0.019l-0.004-0.004l-0.006-0.004l-0.002-0.002l-0.007-0.003l-0.003-0.004l-0.033-0.024l-0.003-0.003l-0.019-0.014
		l-0.003-0.003l-0.006-0.004l-0.003-0.003l-0.013-0.009l-0.004-0.005l-0.006-0.005l-0.003-0.003l-0.006-0.003l-0.003-0.004
		l-0.006-0.004l-0.005-0.005l-0.005-0.003l-0.004-0.003l-0.005-0.004l-0.004-0.005l-0.005-0.003l-0.046-0.046l-0.036-0.037
		l-0.003-0.006l-0.012-0.014l-0.003-0.005l-0.011-0.012l-0.003-0.005l-0.005-0.007l-0.003-0.007l-0.003-0.002l-0.004-0.007
		l-0.002-0.003l-0.004-0.007l-0.003-0.003l-0.004-0.006l-0.007-0.008l-0.003-0.008l-0.007-0.009l-0.004-0.005l-0.003-0.004
		l-0.033-0.049l-0.015-0.027l-0.022-0.037l-0.071-0.157l-0.006-0.01l-0.029-0.069l-0.022-0.067l-0.027-0.098l-0.029-0.153
		l-0.018-0.127v-0.027l0.003-0.024l0.009-0.023l0.009-0.009l0.009-0.005l0.012,0l0.026,0.008l0.034,0.021l0.002,0.003l0.013,0.01
		l0.003,0.003l0.006,0.003l0.003,0.004l0.005,0.003l0.003,0.005l0.007,0.002l0.002,0.004l0.006,0.003l0.003,0.004l0.005,0.004
		l0.006,0.006l0.025,0.017l0.004,0.004l0.048,0.035l0.008,0.004l0.017,0.012l0.072,0.035l0.063,0.027l0.059,0.018l0.062,0.01H12.8
		l0.009,0.003h0.064l0.048-0.005l0.044-0.008l0.055-0.018l0.062-0.03l0.048-0.032l0.004-0.004l0.005-0.005l0.005-0.005l0.016-0.013
		l0.028-0.031l0.003-0.006l0.017-0.018l0.003-0.007l0.005-0.006l0.014-0.021l0.031-0.061l0.03-0.068l0.015-0.057l0-0.022
		l0.002-0.009v-0.035l0.003-0.011V9.952l-0.003-0.01V9.904l-0.002-0.01V9.881l-0.007-0.04l-0.013-0.049l-0.023-0.054l-0.03-0.051
		L13.212,9.66l-0.045-0.051l-0.006-0.003L13.14,9.581l-0.005-0.003l-0.006-0.007l-0.04-0.03l-0.05-0.027l-0.046-0.021l-0.057-0.01
		h-0.025l-0.009-0.004h-0.104l-0.052,0.005l-0.082,0.021l-0.107,0.042l-0.008,0.007l-0.01,0.003l-0.086,0.054l-0.055,0.039
		l-0.055,0.034L12.311,9.7l-0.015-0.003L12.288,9.69l-0.001-0.007l0.001-0.018l0.023-0.042l0.004-0.004l0.002-0.006l0.004-0.003
		l0.004-0.006L12.328,9.6l0.053-0.088l0.015-0.027l0.01-0.02l0.027-0.055l0.043-0.104l0.018-0.067l0.014-0.081V9.146l0.003-0.029
		V9.069L12.503,9.01l-0.002-0.014L12.5,8.978l-0.012-0.051l-0.015-0.053l-0.035-0.07l-0.002-0.003l-0.003-0.007l-0.029-0.041
		l-0.041-0.045l-0.006-0.004L12.334,8.68l-0.005-0.003l-0.003-0.003l-0.006-0.005l-0.003-0.002l-0.012-0.01L12.298,8.65L12.28,8.639
		l-0.024-0.017l-0.007-0.003l-0.009-0.006l-0.026-0.012l-0.048-0.019l-0.062-0.01h-0.012l-0.009-0.003H12.01l-0.045,0.005
		l-0.073,0.019L11.821,8.63l-0.04,0.024l-0.003,0.005l-0.006,0.004l-0.004,0.002l-0.006,0.004l-0.045,0.049l-0.003,0.006
		l-0.013,0.014l-0.003,0.006l-0.005,0.007L11.69,8.758l-0.005,0.003l-0.024,0.039l-0.027,0.054l-0.019,0.055l-0.013,0.055L11.6,8.98
		l-0.002,0.016l-0.002,0.026l-0.002,0.009v0.083l0.002,0.009v0.022l0.007,0.038l0.016,0.079l0.026,0.086l0.035,0.082l0.01,0.02
		l0.003,0.009l0.009,0.018l0.004,0.008l0.08,0.136l0.005,0.013l0.006,0.01l0.007,0.021l0.001,0.027l-0.004,0.009H11.8l-0.007,0.007
		L11.782,9.71l-0.016-0.003l-0.034-0.021l-0.116-0.083l-0.04-0.027l-0.042-0.025l-0.08-0.034L11.37,9.486l-0.093-0.019h-0.016
		l-0.009-0.002h-0.063L11.157,9.47l-0.063,0.016l-0.04,0.019L11.029,9.52l-0.056,0.037L10.97,9.56l-0.007,0.004L10.958,9.57
		l-0.005,0.004l-0.004,0.003l-0.006,0.003L10.936,9.59l-0.021,0.021L10.91,9.618L10.888,9.64l-0.003,0.007l-0.006,0.005L10.876,9.66
		l-0.003,0.003L10.87,9.669l-0.004,0.003l-0.034,0.061l-0.015,0.037L10.81,9.788l-0.018,0.067l-0.011,0.063v0.025l-0.002,0.009
		v0.024l0.002,0.009v0.025l0.006,0.041l0.018,0.075l0.027,0.069l0.034,0.062l0.035,0.047l0.036,0.041l0.005,0.003l0.003,0.004
		l0.03,0.022l0.024,0.015l0.018,0.012l0.043,0.022l0.054,0.021l0.072,0.017h0.021l0.009,0.002h0.026l0.086-0.01l0.024-0.006
		l0.031-0.003l0.046-0.012l0.045-0.016l0.019-0.007l0.049-0.02l0.067-0.037l0.018-0.012l0.007-0.003l0.018-0.01l0.016-0.01
		l0.064-0.043l0.003-0.003l0.064-0.046l0.024-0.01l0.022,0.002l0.012,0.008l0.002,0.003l0.01,0.018l0.006,0.029v0.03l-0.003,0.009
		v0.014l-0.013,0.099l-0.016,0.078l-0.028,0.112l-0.008,0.032l-0.041,0.106l-0.056,0.128l-0.048,0.084l-0.003,0.003l-0.013,0.021
		l-0.003,0.004l-0.003,0.007l-0.007,0.005l-0.003,0.005l-0.004,0.005l-0.003,0.005l-0.003,0.003l-0.004,0.008l-0.003,0.003
		l-0.007,0.014l-0.003,0.004l-0.004,0.005l-0.002,0.004l-0.004,0.007l-0.005,0.005l-0.003,0.006l-0.004,0.003l-0.004,0.006
		l-0.003,0.002l-0.004,0.008l-0.002,0.004l-0.004,0.006l-0.003,0.004l-0.004,0.005l-0.003,0.004l-0.003,0.005l-0.008,0.009
		l-0.003,0.007l-0.033,0.04l-0.044,0.048l-0.005,0.003l-0.01,0.012l-0.006,0.003l-0.005,0.006l-0.006,0.003l-0.008,0.008
		l-0.005,0.005l-0.005,0.007l-0.006,0.002l-0.003,0.004l-0.005,0.003l-0.003,0.003l-0.006,0.003l-0.002,0.004l-0.007,0.004
		l-0.003,0.004l-0.005,0.002l-0.004,0.005l-0.005,0.003l-0.004,0.003l-0.005,0.004l-0.002,0.004l-0.007,0.003l-0.003,0.003
		l-0.005,0.005l-0.004,0.005l-0.006,0.002l-0.003,0.003l-0.02,0.014l-0.002,0.003l-0.006,0.004l-0.003,0.004l-0.01,0.005
		l-0.008,0.007l-0.125,0.079l-0.075,0.038l-0.063,0.029l-0.076,0.03l-0.116,0.032l-0.081,0.013h-0.028l-0.009,0.004H10.67
		l-0.009,0.002h-0.023l-0.027,0.004h-0.013l-0.009,0.003h-0.016l-0.009,0.002H10.5l-0.01-0.002h-0.016l-0.025-0.006h-0.014
		l-0.027-0.004h-0.016l-0.009-0.004h-0.016l-0.027-0.004h-0.013L10.27,11.6l-0.092-0.023l-0.017-0.007l-0.022-0.006l-0.071-0.028
		l-0.1-0.051l-0.021-0.009L9.94,11.471l-0.013-0.006L9.85,11.418l-0.004-0.004l-0.039-0.026l-0.005-0.003l-0.017-0.012l-0.003-0.003
		L9.75,11.346L9.745,11.34l-0.013-0.009l-0.033-0.03l-0.045-0.045l-0.052-0.048l-0.031-0.032l-0.003-0.007l-0.024-0.026
		l-0.002-0.007l-0.012-0.013l-0.004-0.005L9.519,11.11l-0.004-0.005l-0.007-0.009L9.504,11.09l-0.007-0.009L9.483,11.06
		l-0.004-0.003L9.478,11.05l-0.006-0.006l-0.069-0.118l-0.017-0.033l-0.016-0.025l-0.012-0.028l-0.006-0.01l-0.041-0.101
		l-0.029-0.083l-0.029-0.11l-0.015-0.099v-0.024l-0.002-0.01v-0.014l-0.002-0.01v-0.028l0.005-0.03l0.006-0.014l0.007-0.005
		l0.018-0.007l0.015,0.003l0.025,0.009l0.009,0.007l0.012,0.007l0.024,0.016l0.102,0.055l0.084,0.042l0.087,0.03l0.066,0.017
		l0.032,0.001l0.008,0.003h0.034l0.05-0.007l0.044-0.008l0.066-0.02l0.048-0.023l0.026-0.016l0.003-0.003l0.024-0.016l0.003-0.004
		l0.005-0.003l0.003-0.004l0.005-0.004l0.006-0.005l0.005-0.005l0.006-0.005l0.005-0.004l0.041-0.044l0.002-0.007l0.009-0.009
		l0.003-0.006l0.005-0.006l0.023-0.036l0.004-0.009l0.009-0.019l0.021-0.048l0.016-0.056l0.009-0.053V10.03l0.002-0.009V9.947
		l-0.005-0.063L10.2,9.833l-0.01-0.028l-0.009-0.022l-0.029-0.058l-0.006-0.008L10.131,9.69l-0.002-0.004l-0.014-0.02l-0.029-0.039
		l-0.005-0.002l-0.022-0.024l-0.005-0.003l-0.004-0.004L10.044,9.59l-0.003-0.003l-0.032-0.025L9.997,9.558L9.989,9.551L9.964,9.539
		L9.907,9.518L9.843,9.502H9.818L9.809,9.5H9.75L9.743,9.502H9.716L9.642,9.52L9.617,9.528L9.588,9.538L9.52,9.564L9.509,9.57
		L9.498,9.576L9.479,9.588L9.473,9.591L9.449,9.607L9.354,9.666L9.317,9.692L9.31,9.696L9.301,9.702l-0.03,0.011H9.253L9.243,9.709
		L9.238,9.7L9.237,9.674l0.01-0.038l0.016-0.038l0.009-0.021L9.28,9.564l0.022-0.049l0.023-0.053l0.034-0.08l0.032-0.094
		l0.015-0.066l0.001-0.017L9.411,9.19l0.002-0.027l0.002-0.011V9.117l0.002-0.01V9.079l-0.002-0.01V9.031L9.409,8.982L9.396,8.929
		l-0.02-0.055L9.343,8.808L9.317,8.769L9.275,8.721L9.27,8.718L9.262,8.71L9.256,8.706L9.253,8.702L9.248,8.699L9.242,8.691
		L9.191,8.654L9.18,8.651L9.172,8.646L9.114,8.618L9.075,8.603L9.016,8.592H9.002l-0.01-0.003H8.945L8.936,8.592h-0.02L8.854,8.604
		L8.825,8.615L8.807,8.624L8.751,8.65L8.72,8.669L8.713,8.676L8.701,8.685L8.698,8.688L8.692,8.691L8.689,8.696L8.684,8.699
		L8.679,8.703L8.675,8.707L8.671,8.711L8.659,8.719L8.621,8.762L8.617,8.769L8.613,8.771L8.61,8.779L8.607,8.781L8.603,8.788
		L8.6,8.791L8.573,8.837L8.546,8.891L8.527,8.943L8.518,8.98L8.505,9.072v0.073l0.003,0.038L8.523,9.25L8.55,9.333L8.6,9.455
		L8.61,9.478L8.618,9.5l0.033,0.071l0.02,0.036l0.015,0.038l0.008,0.031L8.693,9.693L8.687,9.707L8.677,9.713L8.655,9.715
		L8.632,9.707L8.583,9.677L8.565,9.663L8.528,9.64L8.505,9.624L8.496,9.619L8.487,9.613l-0.08-0.042L8.333,9.538L8.255,9.514
		l-0.06-0.012H8.122L8.075,9.511L8.007,9.527L7.993,9.534L7.972,9.541L7.918,9.576L7.916,9.58L7.909,9.583L7.906,9.588L7.9,9.591
		L7.894,9.598L7.889,9.601L7.884,9.607L7.876,9.611L7.871,9.619L7.857,9.631L7.856,9.633L7.841,9.649L7.821,9.67L7.817,9.677
		L7.814,9.681L7.801,9.702L7.798,9.708L7.795,9.713L7.791,9.718L7.788,9.723L7.782,9.73L7.779,9.737L7.776,9.741L7.771,9.746
		L7.768,9.75l-0.02,0.033L7.735,9.816L7.726,9.844l-0.008,0.05v0.022L7.715,9.926v0.089L7.72,10.07l0.011,0.059l0.024,0.075
		l0.027,0.057l0.003,0.005l0.013,0.021l0.031,0.042l0.023,0.025l0.005,0.003l0.013,0.013l0.031,0.026l0.042,0.028l0.05,0.022
		l0.058,0.021l0.073,0.015H8.15l0.008,0.003h0.02l0.009-0.003H8.21l0.047-0.009l0.057-0.014l0.047-0.014l0.059-0.025l0.04-0.019
		l0.02-0.01l0.008-0.005l0.003-0.002l0.067-0.039l0.024-0.016l0.008-0.005l0.016-0.01l0.025-0.013l0.02-0.007l0.024,0.003
		l0.011,0.007l0.012,0.018l0.006,0.028v0.051l-0.006,0.034l-0.004,0.013l-0.028,0.144l-0.02,0.074l-0.04,0.104l-0.05,0.112
		L8.542,10.91l-0.009,0.02l-0.006,0.009l-0.014,0.026l-0.02,0.031l-0.028,0.049l-0.003,0.004l-0.013,0.021l-0.003,0.003
		l-0.003,0.006l-0.043,0.058l-0.091,0.1L8.303,11.24l-0.01,0.012l-0.006,0.003l-0.011,0.011L8.271,11.27l-0.003,0.003l-0.006,0.005
		l-0.005,0.007l-0.006,0.002l-0.003,0.004l-0.007,0.003l-0.012,0.013l-0.005,0.005l-0.005,0.006l-0.005,0.003l-0.011,0.011
		l-0.005,0.003l-0.012,0.016l-0.006,0.002l-0.008,0.009l-0.033,0.025l-0.061,0.042l-0.134,0.074l-0.019,0.007l-0.007,0.007
		l-0.06,0.027l-0.116,0.041l-0.074,0.021l-0.101,0.018H7.552l-0.059,0.011H7.476l-0.009,0.001H7.293l-0.045-0.004l-0.042-0.008
		H7.189v-0.008H7.142l-0.016-0.002l-0.044-0.009l-0.064-0.02l-0.035-0.014l-0.039-0.013l-0.153-0.072l-0.065-0.039l-0.078-0.054
		l-0.004-0.005l-0.012-0.008l-0.005-0.005l-0.004-0.003L6.62,11.369l-0.006-0.004l-0.002-0.003l-0.026-0.019L6.582,11.34
		l-0.02-0.014l-0.003-0.004l-0.006-0.003L6.55,11.315l-0.005-0.004l-0.024-0.022l-0.047-0.05L6.47,11.233l-0.005-0.003l-0.008-0.011
		l-0.027-0.029L6.39,11.148l-0.004-0.007l-0.012-0.014l-0.003-0.006l-0.004-0.003l-0.003-0.005L6.36,11.108l-0.003-0.007
		l-0.005-0.006l-0.018-0.028l-0.003-0.004l-0.018-0.028l-0.003-0.004l-0.004-0.007l-0.002-0.003l-0.043-0.07l-0.008-0.013
		l-0.028-0.052l-0.003-0.008l-0.011-0.02l-0.005-0.014l-0.023-0.053l-0.034-0.089l-0.035-0.111l-0.022-0.103l-0.002-0.02
		l-0.003-0.015l-0.001-0.021L6.082,10.42l-0.003-0.041l-0.004-0.027v-0.017l-0.002-0.01v-0.011l0.002-0.01v-0.016l0.004-0.018
		l0.011-0.023l0.002,0l0.01-0.006h0.018l0.022,0.007l0.04,0.025l0.002,0.003l0.005,0.005l0.004,0.003L6.2,10.287l0.003,0.003
		l0.005,0.004l0.003,0.003l0.054,0.039l0.033,0.018l0.023,0.015l0.01,0.005l0.008,0.005l0.046,0.023l0.082,0.036l0.056,0.018
		l0.061,0.01h0.023l0.01,0.003H6.66l0.009,0.002h0.027l0.009-0.002h0.045L6.8,10.463l0.055-0.013l0.038-0.016l0.043-0.025
		l0.004-0.003l0.023-0.016l0.003-0.003l0.021-0.014l0.03-0.027l0.022-0.023l0.002-0.005l0.003-0.004l0.04-0.063l0.005-0.014
		l0.006-0.01l0.024-0.059l0.018-0.061l0.011-0.059V9.979L7.147,9.968V9.956h0.006L7.151,9.943V9.942L7.144,9.933L7.141,9.896
		L7.137,9.881L7.134,9.833L7.127,9.804L7.11,9.756L7.068,9.685L7.064,9.682L7.057,9.668L7.051,9.661L7.046,9.655L7.042,9.649
		L7.039,9.642L7.031,9.635L7.012,9.611L7.006,9.607L6.982,9.581L6.977,9.578L6.971,9.571L6.958,9.564L6.955,9.559L6.927,9.541
		l-0.08-0.032L6.827,9.502L6.809,9.497L6.741,9.483H6.676L6.644,9.487L6.575,9.505L6.48,9.538l-0.08,0.037L6.333,9.616L6.255,9.672
		L6.188,9.719L6.167,9.729L6.153,9.73L6.147,9.728L6.14,9.721L6.139,9.715V9.693l0.006-0.024l0.027-0.055l0.04-0.068l0.011-0.02
		l0.005-0.01l0.032-0.065l0.029-0.069L6.31,9.322l0.029-0.125l0.012-0.068V9.077L6.347,9.056L6.334,8.992l-0.016-0.06L6.304,8.895
		L6.295,8.874L6.288,8.86L6.284,8.853L6.255,8.799L6.223,8.754L6.204,8.733L6.198,8.728L6.187,8.717L6.182,8.712L6.178,8.71
		L6.172,8.706L6.167,8.699l-0.013-0.01L6.151,8.688L6.109,8.657L6.099,8.654L6.091,8.647L6.035,8.622l-0.063-0.02L5.911,8.592H5.858
		L5.842,8.594L5.783,8.608L5.704,8.638L5.666,8.663L5.662,8.666l-0.01,0.007L5.61,8.705L5.594,8.721L5.588,8.724L5.584,8.731
		L5.578,8.737L5.573,8.742L5.568,8.746L5.564,8.752L5.55,8.77L5.546,8.775L5.541,8.781L5.538,8.788L5.534,8.791L5.53,8.798
		L5.527,8.802L5.494,8.856L5.473,8.901L5.45,8.971L5.438,9.044v0.019l-0.003,0.01v0.101l0.003,0.01v0.012l0.009,0.051l0.018,0.065
		l0.018,0.051l0.009,0.028l0.006,0.012l0.007,0.022L5.51,9.434l0.004,0.011l0.038,0.078L5.598,9.6l0.003,0.004l0.012,0.022
		l0.005,0.005l0.003,0.005L5.625,9.64l0.028,0.049l0.006,0.02v0.012L5.655,9.729L5.648,9.733L5.64,9.735L5.61,9.723l-0.133-0.09
		L5.465,9.626l-0.017-0.01L5.387,9.583L5.316,9.555L5.25,9.534L5.191,9.522H5.167l-0.008,0H5.098L5.087,9.518L5.08,9.521H5.019
		l-0.009,0H4.996L4.959,9.529l-0.04,0.012l-0.05,0.028L4.86,9.575L4.847,9.583L4.79,9.631L4.742,9.683L4.739,9.689L4.732,9.696
		L4.729,9.702L4.726,9.706l-0.03,0.046l-0.02,0.042L4.658,9.848L4.644,9.909L4.642,9.931L4.638,9.96v0.104l0.004,0.042l0.009,0.045
		l0.019,0.057l0.019,0.038l0.033,0.061l0.005,0.007l0.003,0.006l0.006,0.007l0.003,0.004l0.007,0.009l0.004,0.008l0.004,0.003
		l0.04,0.042l0.005,0.004l0.006,0.006l0.005,0.003l0.004,0.003l0.04,0.029l0.062,0.031L5,10.492l0.069,0.012h0.059l0.033-0.006
		l0.078-0.022l0.114-0.036l0.041-0.02l0.049-0.03l0.003-0.003l0.028-0.02l0.003-0.003l0.017-0.011l0.004-0.004l0.005-0.003
		l0.004-0.005l0.017-0.011l0.005-0.006l0.012-0.008l0.003-0.003l0.006-0.005l0.013-0.012l0.005-0.004l0.003-0.003l0.007-0.003
		l0.005-0.007l0.005-0.002l0.003-0.005l0.006-0.003l0.003-0.003l0.014-0.009l0.018-0.01l0.017-0.006h0.016l0.014,0.007l0.006,0.013
		l0.006,0.025v0.042L5.684,10.42l-0.003,0.013L5.68,10.454l-0.02,0.105l-0.028,0.11l-0.006,0.024l-0.01,0.032l-0.012,0.042
		l-0.025,0.062l-0.05,0.107l-0.011,0.018l-0.002,0.009l-0.019,0.035l-0.004,0.009l-0.01,0.018l-0.003,0.01l-0.04,0.07l-0.006,0.007
		l-0.004,0.005l-0.002,0.003l-0.004,0.006l-0.004,0.003l-0.003,0.007l-0.006,0.005L5.407,11.15L5.4,11.157l-0.003,0.005
		l-0.003,0.003l-0.003,0.007L5.385,11.18L5.38,11.184l-0.003,0.004l-0.021,0.027l-0.102,0.112l-0.006,0.004l-0.014,0.016
		l-0.007,0.004l-0.01,0.011l-0.005,0.004l-0.006,0.005l-0.005,0.003l-0.003,0.005l-0.005,0.004l-0.004,0.003L5.183,11.39
		l-0.005,0.007l-0.006,0.003l-0.002,0.005l-0.013,0.009l-0.003,0.004l-0.006,0.003l-0.005,0.005l-0.033,0.024l-0.003,0.003
		L5.066,11.48l-0.009,0.006l-0.024,0.017l-0.024,0.015l-0.012,0.007l-0.016,0.01l-0.044,0.023l-0.015,0.005l-0.022,0.012
		l-0.084,0.03l-0.111,0.03l-0.092,0.019H4.59l-0.008,0.002H4.474l-0.01-0.002h-0.02l-0.068-0.012l-0.038-0.009l-0.014-0.002
		l-0.03-0.008l-0.044-0.01l-0.041-0.009l-0.029-0.009l-0.046-0.018L4.037,11.53l-0.089-0.043l-0.015-0.011l-0.006-0.002
		l-0.048-0.032l-0.003-0.003l-0.012-0.007l-0.003-0.004l-0.005-0.004l-0.003-0.002l-0.013-0.01L3.837,11.41l-0.006-0.004
		l-0.003-0.005l-0.005-0.003l-0.003-0.004L3.813,11.39l-0.006-0.005l-0.005-0.004l-0.004-0.005l-0.006-0.003L3.79,11.369
		l-0.006-0.004l-0.002-0.003l-0.006-0.004l-0.003-0.003l-0.007-0.002l-0.002-0.005l-0.006-0.005L3.753,11.34l-0.007-0.003
		l-0.022-0.022l-0.045-0.047l-0.002-0.007l-0.02-0.021l-0.003-0.006l-0.008-0.009l-0.003-0.005l-0.011-0.01l-0.003-0.007
		l-0.008-0.009l-0.002-0.007l-0.009-0.008l-0.007-0.015l-0.009-0.007l-0.007-0.014l-0.022-0.034l-0.015-0.027l-0.033-0.06
		l-0.014-0.027l-0.016-0.025L3.46,10.906l-0.034-0.09l-0.009-0.023l-0.005-0.015l-0.024-0.085l-0.012-0.071v-0.046l0.006-0.028
		l0.013-0.023l0.013-0.01l0.029-0.007h0.013l0.091,0.016h0.018l0.009,0.002h0.036l0.059-0.007l0.047-0.012l0.066-0.022l0.072-0.043
		l0.034-0.026l0.053-0.058l0.004-0.006l0.012-0.014l0.003-0.006l0.005-0.007l0.004-0.004l0.003-0.005l0.003-0.006l0.002-0.004
		l0.004-0.006l0.004-0.003l0.012-0.021l0.003-0.003l0.017-0.033l0.006-0.009l0.02-0.054l0.016-0.057l0.011-0.06V10.04l0.002-0.01
		L4.062,9.971l-0.01-0.05L4.027,9.833L4.004,9.777L3.975,9.724L3.97,9.719L3.966,9.711L3.93,9.669L3.907,9.642L3.901,9.64
		L3.889,9.626L3.883,9.623L3.88,9.618L3.875,9.615L3.871,9.611L3.864,9.607L3.861,9.604L3.817,9.574L3.771,9.551L3.72,9.534
		L3.659,9.522H3.646l-0.008,0h-0.05l-0.008,0H3.556L3.52,9.529L3.463,9.544L3.442,9.552L3.42,9.561L3.412,9.568L3.404,9.571
		L3.35,9.608L3.346,9.612L3.333,9.621L3.331,9.625L3.324,9.627L3.319,9.635L3.313,9.638L3.309,9.642L3.303,9.646L3.28,9.668
		l-0.019,0.02L3.257,9.696L3.24,9.711L3.237,9.719L3.234,9.721L3.202,9.776l-0.02,0.046L3.159,9.884L3.135,9.956L3.121,9.985
		L3.118,9.989L3.115,9.997L3.11,9.999H3.095L3.082,9.985L3.069,9.96L3.047,9.894L3.042,9.866L3.021,9.775l-0.03-0.123l-0.06-0.205
		L2.898,9.354L2.888,9.322L2.857,9.236L2.848,9.217L2.84,9.196L2.832,9.183L2.811,9.13l-0.01-0.016l-0.012-0.03l-0.01-0.02
		L2.775,9.058L2.756,9.021L2.75,9.011L2.701,8.925L2.695,8.919L2.691,8.913l-0.024-0.03L2.601,8.809L2.595,8.805L2.571,8.78
		L2.566,8.775L2.556,8.763L2.55,8.76L2.547,8.756L2.541,8.752L2.537,8.749L2.484,8.712L2.462,8.7L2.446,8.691L2.398,8.673
		L2.361,8.661L2.318,8.651H2.306L2.297,8.648H2.192L2.184,8.651H2.172L2.12,8.663L2.069,8.685L2.014,8.719L2.01,8.724l-0.018,0.01
		L1.99,8.738L1.984,8.742L1.978,8.749L1.973,8.752L1.937,8.784L1.922,8.799L1.919,8.805L1.91,8.815L1.905,8.821L1.9,8.828
		L1.874,8.874l-0.022,0.04L1.833,8.967L1.82,9.01l-0.013,0.08v0.034l-0.002,0.01v0.012l0.002,0.01v0.03l0.007,0.056l0.011,0.054
		l0.02,0.072l0.028,0.067L1.897,9.49l0.01,0.019l0.018,0.032l0.09,0.161L2.02,9.711l0.037,0.065l0.007,0.011l0.012,0.022
		l0.033,0.064l0.026,0.048l0.014,0.026l0.041,0.065l0.035,0.061l0.02,0.038l0.021,0.031l0.004,0.011l0.024,0.042l0.039,0.077
		l0.054,0.095l0.044,0.086l0.011,0.018l0.014,0.027l0.01,0.021l0.004,0.008l0.01,0.018l0.005,0.014l0.01,0.019l0.019,0.044
		l0.043,0.083l0.021,0.039l0.015,0.034l0.006,0.009l0.021,0.051l0.011,0.018l0.018,0.044l0.006,0.01l0.082,0.174l0.051,0.118
		l0.005,0.011l0.004,0.009l0.081,0.175l0.04,0.1l0.003,0.013l0.01,0.026l0.024,0.06l0.026,0.069l0.009,0.017l0.062,0.161
		l0.008,0.018l0.026,0.074l0.039,0.113l0.07,0.22l0.042,0.128l0.013,0.047l0.01,0.034L3.292,12.6l0.017,0.064l0.057,0.234
		l0.038,0.18l0.042,0.232l0.067,0.445l0.011,0.071l0.011,0.024l0.014,0.016l0.016,0.012l0.02,0.008l0.048,0.009l10.656-0.002
		l0.008-0.003h0.027l0.009-0.003h0.013l0.033-0.006l0.02-0.009l0.018-0.017l0.009-0.012l0.014-0.035l0.009-0.046l0.011-0.148
		l0.002-0.014l0.002-0.021l0.003-0.013l0.001-0.019l0.003-0.014l0.001-0.022l0.002-0.015l0.003-0.02l0.021-0.117l0.002-0.021
		l0.001-0.014l0.003-0.02l0.018-0.113l0.051-0.26l0.017-0.078l0.028-0.131l0.022-0.077l0.037-0.147l0.059-0.207l0.013-0.037
		l0.064-0.206l0.048-0.127l0.006-0.016l0.045-0.14l0.037-0.094l0.011-0.029l0.056-0.148l0.008-0.018l0.014-0.037l0.011-0.018
		l0.014-0.033l0.025-0.061l0.055-0.134l0.005-0.01l0.189-0.417l0.018-0.033l0.007-0.021l0.006-0.01l0.012-0.027l0.018-0.036
		l0.022-0.04l0.015-0.028l0.026-0.058l0.01-0.019l0.018-0.037l0.01-0.02l0.005-0.012l0.042-0.078l0.012-0.028l0.011-0.019
		l0.006-0.014l0.019-0.036l0.003-0.008l0.042-0.076l0.021-0.04l0.019-0.034l0.042-0.079l0.013-0.02l0.004-0.013l0.083-0.143
		l0.037-0.074l0.044-0.075l0.003-0.004l0.006-0.011l0.035-0.057l0.007-0.011l0.027-0.048l0.038-0.07l0.01-0.019l0.002-0.009
		l0.012-0.019l0.02-0.047l0.041-0.111l0.02-0.083l0.002-0.015l0.003-0.016l0.001-0.025l0.002-0.012V9.097l0.002-0.009V9.06
		L16.135,9.05z M5.948,12.928c-0.324,0-0.586-0.171-0.586-0.385c0-0.213,0.263-0.384,0.586-0.384c0.322,0,0.584,0.171,0.584,0.384
		C6.533,12.757,6.271,12.928,5.948,12.928z M8.958,12.928c-0.324,0-0.585-0.171-0.585-0.385c0-0.213,0.261-0.384,0.585-0.384
		c0.322,0,0.584,0.171,0.584,0.384C9.543,12.757,9.281,12.928,8.958,12.928z M11.987,12.928c-0.323,0-0.584-0.171-0.584-0.385
		c0-0.213,0.261-0.384,0.584-0.384s0.586,0.171,0.586,0.384C12.573,12.757,12.311,12.928,11.987,12.928z"/>
	<ellipse fill="#8E9295" cx="2.919" cy="7.762" rx="0.487" ry="0.55"/>
	<ellipse fill="#8E9295" cx="3.767" cy="6.524" rx="0.441" ry="0.488"/>
	<ellipse fill="#8E9295" cx="4.887" cy="5.676" rx="0.382" ry="0.415"/>
	<ellipse fill="#8E9295" cx="6.04" cy="5.085" rx="0.32" ry="0.363"/>
	<ellipse fill="#8E9295" cx="7.166" cy="4.935" rx="0.306" ry="0.332"/>
	<ellipse fill="#8E9295" cx="8.108" cy="5.167" rx="0.268" ry="0.289"/>
	<ellipse fill="#8E9295" cx="7.441" cy="5.882" rx="0.276" ry="0.296"/>
	<ellipse fill="#8E9295" cx="6.112" cy="7.688" rx="0.452" ry="0.496"/>
	<ellipse fill="#8E9295" cx="8.971" cy="7.669" rx="0.452" ry="0.494"/>
	<ellipse fill="#8E9295" cx="8.971" cy="6.419" rx="0.345" ry="0.38"/>
	<ellipse fill="#8E9295" cx="8.97" cy="5.422" rx="0.252" ry="0.274"/>
	<ellipse fill="#8E9295" cx="6.634" cy="6.577" rx="0.327" ry="0.353"/>
	<ellipse fill="#8E9295" cx="15.024" cy="7.762" rx="0.487" ry="0.55"/>
	<ellipse fill="#8E9295" cx="14.177" cy="6.524" rx="0.442" ry="0.488"/>
	<ellipse fill="#8E9295" cx="13.056" cy="5.676" rx="0.381" ry="0.415"/>
	<ellipse fill="#8E9295" cx="11.903" cy="5.085" rx="0.32" ry="0.363"/>
	<ellipse fill="#8E9295" cx="10.777" cy="4.935" rx="0.306" ry="0.332"/>
	<ellipse fill="#8E9295" cx="9.835" cy="5.167" rx="0.268" ry="0.289"/>
	<ellipse fill="#8E9295" cx="10.501" cy="5.882" rx="0.276" ry="0.296"/>
	<ellipse fill="#8E9295" cx="11.831" cy="7.688" rx="0.451" ry="0.496"/>
	<ellipse fill="#8E9295" cx="11.309" cy="6.577" rx="0.326" ry="0.353"/>
</g>
<path fill="#0067C6" d="M25.17,16.73c-0.404,0-0.746,0.241-0.974,0.501c-0.228,0.258-1.251,1.56-8.546,11.23
	c-0.004,0.005-1.201,1.665-1.855,2.571c0-1.289,0-13.367,0-13.367c0-0.516-0.425-0.936-0.949-0.936H5.081
	c-0.523,0-0.95,0.419-0.95,0.936v34.668c0,0.517,0.426,0.936,0.95,0.936h7.765c0.524,0,0.949-0.419,0.949-0.936V41.86
	c0-0.104,0.078-0.315,0.146-0.395c0.001-0.003,1.903-2.292,2.517-3.033c0.327,0.523,8.887,14.232,8.887,14.232
	c0.205,0.349,0.662,0.604,1.081,0.604h9.25c0.309,0,0.562-0.136,0.694-0.374c0.058-0.106,0.086-0.222,0.086-0.339
	c0-0.147-0.045-0.301-0.131-0.439c-0.002-0.002-0.004-0.006-12.919-19.807c0-0.005,0.005-0.051,0.014-0.067
	c0.001,0,0.232-0.293,11.358-14.338c0.124-0.152,0.187-0.325,0.187-0.494c0-0.097-0.021-0.193-0.065-0.284
	c-0.118-0.248-0.379-0.396-0.697-0.396H25.17z M13.556,41.213c0.001,0,0.015-0.018,0.017-0.02c0.005-0.006,0.009-0.02,0.014-0.027
	L13.556,41.213z"/>
<g>
	<g>
		<path fill="#8E9295" d="M30.641,13.565c-0.002,0.149-0.12,0.263-0.275,0.265l0,0c-0.152-0.001-0.27-0.115-0.273-0.265l0,0
			c0.001-0.149,0.119-0.263,0.273-0.265l0,0C30.52,13.301,30.638,13.416,30.641,13.565z"/>
		<path fill="#8E9295" d="M30.075,13.06c-0.272,0.187-0.771-0.112-1.071-0.65c-0.35-0.629-0.281-1.584-0.281-1.584
			s0.811,0.398,1.208,0.931C30.327,12.289,30.381,12.849,30.075,13.06z"/>
		<path fill="#8E9295" d="M28.07,12.241c-0.328,0.067-0.813-0.378-0.948-1.02c-0.135-0.642,0.109-1.665,0.109-1.665l0,0
			c0,0,0.882,0.765,1.096,1.409C28.542,11.611,28.396,12.155,28.07,12.241z"/>
		<path fill="#8E9295" d="M28.633,12.716c-0.041,0.104-0.153,0.153-0.262,0.118l0,0c-0.106-0.039-0.16-0.148-0.123-0.252l0,0
			c0.04-0.104,0.152-0.153,0.263-0.118l0,0C28.617,12.503,28.671,12.611,28.633,12.716z"/>
		<path fill="#8E9295" d="M26.269,11.082c-0.322,0-0.562-0.294-0.562-0.85c0-0.672,0.572-1.466,0.572-1.466l0,0
			c0,0,0.543,0.811,0.543,1.383S26.591,11.082,26.269,11.082z"/>
		<path fill="#8E9295" d="M26.955,11.962c-0.079,0.089-0.213,0.1-0.31,0.026l0,0c-0.093-0.078-0.104-0.206-0.027-0.298l0,0
			c0.082-0.088,0.215-0.099,0.311-0.025l0,0C27.021,11.742,27.034,11.869,26.955,11.962z"/>
		<path fill="#8E9295" d="M25.537,10.812c-0.081,0.044-0.179,0.018-0.226-0.058l0,0c-0.044-0.076-0.016-0.168,0.064-0.214l0,0
			c0.081-0.043,0.178-0.02,0.224,0.057l0,0C25.644,10.674,25.618,10.766,25.537,10.812z"/>
		<path fill="#8E9295" d="M24.757,8.91c-0.138,0.021-0.261-0.063-0.283-0.196l0,0c-0.017-0.132,0.076-0.251,0.214-0.277l0,0
			c0.139-0.021,0.26,0.061,0.281,0.194l0,0C24.988,8.763,24.896,8.883,24.757,8.91z"/>
		<path fill="#8E9295" d="M25.219,7.435c-0.138-0.022-0.222-0.141-0.195-0.28l0,0c0.031-0.136,0.16-0.228,0.299-0.21l0,0
			c0.137,0.021,0.22,0.142,0.194,0.279l0,0C25.487,7.359,25.358,7.452,25.219,7.435z"/>
	</g>
	<path fill="#8E9295" d="M26.233,12.011c-0.107,0.335-0.492,0.488-1.071,0.302c-0.697-0.222-1.333-1.081-1.333-1.081l0,0
		c0,0,1.022-0.296,1.618-0.105C26.041,11.316,26.339,11.677,26.233,12.011z"/>
	<path fill="#8E9295" d="M27.889,12.837c0.038,0.314-0.253,0.581-0.858,0.642c-0.728,0.075-1.656-0.396-1.656-0.396l0,0
		c0,0,0.816-0.621,1.437-0.685C27.434,12.335,27.851,12.521,27.889,12.837z"/>
	<path fill="#8E9295" d="M29.419,13.232c0.12,0.25-0.047,0.557-0.533,0.779c-0.586,0.268-1.494,0.137-1.494,0.137l0,0
		c0,0,0.505-0.75,1.005-0.977C28.897,12.942,29.298,12.979,29.419,13.232z"/>
	<path fill="#8E9295" d="M25.091,10.417c-0.206,0.207-0.566,0.148-0.953-0.253c-0.469-0.486-0.654-1.43-0.654-1.43l0,0
		c0,0,0.914,0.238,1.312,0.654C25.197,9.802,25.298,10.211,25.091,10.417z"/>
	<path fill="#8E9295" d="M25.344,9.302c-0.218-0.042-0.322-0.315-0.217-0.773c0.127-0.553,0.664-1.131,0.664-1.131l0,0
		c0,0,0.211,0.737,0.101,1.209C25.785,9.078,25.56,9.345,25.344,9.302z"/>
	<path fill="#8E9295" d="M25.054,6.666c-0.216-0.008-0.367-0.234-0.344-0.647c0.027-0.501,0.445-1.079,0.445-1.079l0,0
		c0,0,0.333,0.619,0.309,1.045C25.441,6.411,25.271,6.674,25.054,6.666z"/>
	<path fill="#8E9295" d="M25.666,6.545c-0.121-0.111-0.086-0.325,0.153-0.568c0.289-0.294,0.845-0.444,0.845-0.444l0,0
		c0,0-0.144,0.545-0.391,0.796C26.029,6.58,25.79,6.656,25.666,6.545z"/>
	<path fill="#8E9295" d="M26.732,4.689c-0.107-0.098-0.077-0.284,0.13-0.5c0.25-0.261,0.738-0.396,0.738-0.396l0,0
		c0,0-0.123,0.479-0.337,0.701C27.051,4.717,26.84,4.786,26.732,4.689z"/>
	<path fill="#8E9295" d="M24.638,8.179C24.402,8.261,24.147,8.08,24,7.625c-0.179-0.547,0.031-1.343,0.031-1.343l0,0
		c0,0,0.616,0.526,0.766,0.995C24.95,7.746,24.876,8.097,24.638,8.179z"/>
	<path fill="#8E9295" d="M25.708,5.531c-0.184-0.088-0.226-0.341-0.05-0.688c0.214-0.42,0.794-0.76,0.794-0.76l0,0
		c0,0,0.051,0.659-0.131,1.019C26.139,5.459,25.892,5.622,25.708,5.531z"/>
	<path fill="#8E9295" d="M30.659,13.06c0.272,0.187,0.771-0.112,1.071-0.65c0.35-0.629,0.281-1.584,0.281-1.584
		s-0.811,0.398-1.208,0.931C30.408,12.289,30.353,12.849,30.659,13.06z"/>
	<path fill="#8E9295" d="M32.664,12.241c0.329,0.067,0.812-0.378,0.948-1.02c0.135-0.642-0.109-1.665-0.109-1.665l0,0
		c0,0-0.882,0.765-1.096,1.409C32.192,11.611,32.339,12.155,32.664,12.241z"/>
	<path fill="#8E9295" d="M32.101,12.716c0.04,0.104,0.153,0.153,0.262,0.118l0,0c0.107-0.039,0.161-0.148,0.123-0.252l0,0
		c-0.039-0.104-0.152-0.153-0.262-0.118l0,0C32.117,12.503,32.064,12.611,32.101,12.716z"/>
	<path fill="#8E9295" d="M34.465,11.082c0.323,0,0.562-0.294,0.562-0.85c0-0.672-0.572-1.466-0.572-1.466l0,0
		c0,0-0.543,0.811-0.543,1.383S34.143,11.082,34.465,11.082z"/>
	<path fill="#8E9295" d="M33.779,11.962c0.079,0.089,0.214,0.1,0.311,0.026l0,0c0.093-0.078,0.105-0.206,0.027-0.298l0,0
		c-0.082-0.088-0.214-0.099-0.311-0.025l0,0C33.712,11.742,33.701,11.869,33.779,11.962z"/>
	<path fill="#8E9295" d="M35.196,10.812c0.082,0.044,0.18,0.018,0.226-0.058l0,0c0.045-0.076,0.017-0.168-0.063-0.214l0,0
		c-0.081-0.043-0.178-0.02-0.225,0.057l0,0C35.09,10.674,35.117,10.766,35.196,10.812z"/>
	<path fill="#8E9295" d="M35.977,8.91c0.139,0.021,0.261-0.063,0.283-0.196l0,0c0.018-0.132-0.075-0.251-0.213-0.277l0,0
		c-0.139-0.021-0.261,0.061-0.281,0.194l0,0C35.747,8.763,35.838,8.883,35.977,8.91z"/>
	<path fill="#8E9295" d="M35.515,7.435c0.137-0.022,0.221-0.141,0.195-0.28l0,0c-0.031-0.136-0.16-0.228-0.299-0.21l0,0
		c-0.138,0.021-0.221,0.142-0.194,0.279l0,0C35.248,7.359,35.376,7.452,35.515,7.435z"/>
	<path fill="#8E9295" d="M34.501,12.011c0.107,0.335,0.492,0.488,1.07,0.302c0.697-0.222,1.334-1.081,1.334-1.081l0,0
		c0,0-1.024-0.296-1.619-0.105C34.693,11.316,34.395,11.677,34.501,12.011z"/>
	<path fill="#8E9295" d="M32.845,12.837c-0.037,0.314,0.253,0.581,0.857,0.642c0.729,0.075,1.657-0.396,1.657-0.396l0,0
		c0,0-0.817-0.621-1.438-0.685C33.301,12.335,32.883,12.521,32.845,12.837z"/>
	<path fill="#8E9295" d="M31.315,13.232c-0.12,0.25,0.047,0.557,0.533,0.779c0.586,0.268,1.495,0.137,1.495,0.137l0,0
		c0,0-0.505-0.75-1.006-0.977C31.837,12.942,31.436,12.979,31.315,13.232z"/>
	<path fill="#8E9295" d="M35.643,10.417c0.207,0.207,0.567,0.148,0.954-0.253c0.469-0.486,0.653-1.43,0.653-1.43l0,0
		c0,0-0.913,0.238-1.312,0.654C35.538,9.802,35.435,10.211,35.643,10.417z"/>
	<path fill="#8E9295" d="M35.39,9.302c0.217-0.042,0.322-0.315,0.217-0.773c-0.127-0.553-0.663-1.131-0.663-1.131l0,0
		c0,0-0.211,0.737-0.102,1.209C34.95,9.078,35.175,9.345,35.39,9.302z"/>
	<path fill="#8E9295" d="M35.681,6.666c0.216-0.008,0.366-0.234,0.345-0.647C35.998,5.518,35.58,4.94,35.58,4.94l0,0
		c0,0-0.333,0.619-0.309,1.045C35.293,6.411,35.463,6.674,35.681,6.666z"/>
	<path fill="#8E9295" d="M35.067,6.545c0.123-0.111,0.086-0.325-0.152-0.568c-0.288-0.294-0.846-0.444-0.846-0.444l0,0
		c0,0,0.144,0.545,0.391,0.796C34.704,6.58,34.945,6.656,35.067,6.545z"/>
	<path fill="#8E9295" d="M34.002,4.689c0.107-0.098,0.077-0.284-0.129-0.5c-0.251-0.261-0.738-0.396-0.738-0.396l0,0
		c0,0,0.122,0.479,0.335,0.701C33.684,4.717,33.894,4.786,34.002,4.689z"/>
	<path fill="#8E9295" d="M36.096,8.179c0.236,0.082,0.491-0.099,0.638-0.554c0.179-0.547-0.031-1.343-0.031-1.343l0,0
		c0,0-0.616,0.526-0.766,0.995C35.785,7.746,35.858,8.097,36.096,8.179z"/>
	<path fill="#8E9295" d="M35.026,5.531c0.183-0.088,0.227-0.341,0.051-0.688c-0.215-0.42-0.795-0.76-0.795-0.76l0,0
		c0,0-0.051,0.659,0.133,1.019C34.596,5.459,34.842,5.622,35.026,5.531z"/>
</g>
<path fill="#8E9295" stroke="#A7A9AC" stroke-width="0.1276" d="M6.023,66.429c0.112-0.353,0.426-1.247,0.426-1.6
	c0-0.832-1.434-0.707-1.973-0.729l0.135-0.458c0.986,0.022,1.973,0.062,2.959,0.083c1.121-0.021,2.242-0.061,3.363-0.083
	l-0.134,0.458c-0.627,0.021-1.502,0.021-1.906,0.541c-0.335,0.396-0.784,1.911-0.941,2.412l-1.368,4.759
	c-0.201,0.791-0.494,1.561-0.494,2.37c0,1.851,1.57,2.827,3.408,2.827c3.206,0,4.193-2.307,5-4.759
	c0.448-1.311,1.793-5.802,1.793-6.964c0-1.104-0.942-1.145-1.839-1.187l0.135-0.458c0.807,0.043,1.591,0.062,2.399,0.083
	c0.852,0,1.681-0.04,2.533-0.083l-0.134,0.458c-1.816,0-2.107,1.061-2.489,2.452l-1.166,3.867c-1.076,3.492-1.974,7.213-6.636,7.213
	c-2.422,0-5.135-0.977-5.135-3.596c0-0.894,0.448-2.035,0.695-2.909L6.023,66.429z"/>
<path fill="#8E9295" stroke="#A7A9AC" stroke-width="0.1276" d="M20.234,77.364h-1.681l0.494-1.312
	c0.515-1.454,1.703-4.925,1.703-6.359c0-0.229-0.022-0.667-0.426-0.667c-0.896,0-1.861,2.142-2.22,2.766l-0.448-0.146
	c0.583-1.205,1.413-3.241,3.162-3.241c0.919,0,1.367,0.645,1.367,1.434c0,0.436-0.113,1.081-0.179,1.539l-0.067,0.373l0.044,0.042
	c0.763-1.372,2.063-3.388,3.991-3.388c1.01,0,1.75,0.768,1.75,1.685c0,0.935-0.404,2.182-0.763,3.055l-0.403,0.998
	c-0.157,0.415-0.762,1.828-0.762,2.245c0,0.229,0.157,0.623,0.471,0.623c0.897,0,1.973-1.954,2.287-2.619l0.47,0.208
	c-0.582,1.144-1.658,3.034-3.205,3.034c-0.964,0-1.48-0.644-1.48-1.475c0-0.853,0.538-2.121,0.829-2.932l0.404-1.019
	c0.269-0.645,0.807-1.768,0.807-2.475c0-0.373-0.313-0.707-0.762-0.707c-1.21,0-2.512,1.829-3.027,2.683
	c-0.919,1.497-1.614,3.368-2.152,5.011L20.234,77.364z"/>
<path fill="#8E9295" stroke="#A7A9AC" stroke-width="0.1276" d="M32.632,71.938c0.203-0.498,0.83-1.995,0.83-2.493
	c0-0.21-0.134-0.418-0.381-0.418c-0.695,0-1.793,1.706-2.107,2.267l-0.448-0.228c0.649-1.02,1.568-2.661,3.004-2.661
	c0.852,0,1.39,0.686,1.39,1.412c0,1-0.651,2.246-1.054,3.182l-0.717,1.684c-0.134,0.354-0.673,1.601-0.673,1.975
	c0,0.167,0.135,0.354,0.336,0.354c0.853,0,2.063-1.851,2.399-2.494l0.448,0.208c-0.56,1.08-1.726,2.909-3.184,2.909
	c-0.918,0-1.457-0.686-1.457-1.495c0-0.874,0.628-1.996,0.987-2.808L32.632,71.938z M33.866,64.704c0-0.54,0.426-0.979,1.009-0.979
	c0.605,0,1.032,0.438,1.032,0.979c0,0.499-0.471,0.914-1.032,0.914C34.336,65.618,33.866,65.223,33.866,64.704z"/>
<path fill="#8E9295" stroke="#A7A9AC" stroke-width="0.1276" d="M45.189,70.005c-0.022-0.229-0.022-0.458-0.044-0.687
	c0-0.498,0.179-0.914,0.784-0.914c0.696,0,0.897,0.665,0.897,1.205c0,2.85-2.332,8.023-6.076,8.023c-1.435,0-2.51-0.893-2.51-2.245
	c0-1.641,1.569-3.658,2.443-5.029l-0.045-0.042c-0.359,0.146-0.807,0.333-1.233,0.333c-0.605,0-1.054-0.376-1.39-0.376
	s-0.471,0.333-0.471,0.582v0.146c0,0.083-0.022,0.188-0.134,0.188c-0.292,0-0.359-0.562-0.359-0.77c0-0.77,0.538-1.371,1.389-1.371
	c0.449,0,0.717,0.146,1.054,0.415c0.179,0.166,0.359,0.353,0.628,0.353c0.381,0,1.054-0.228,1.165-0.602
	c0.113-0.312,0.202-0.811,0.651-0.811c0.202,0,0.358,0.167,0.358,0.373c0,0.271-0.426,0.853-0.56,1.082
	c-0.919,1.455-1.548,3.431-1.548,5.134c0,0.832,0.158,2.017,1.324,2.017c1.121,0,2.107-1.226,2.623-2.017
	c0.784-1.226,1.099-2.64,1.099-4.053L45.189,70.005z"/>
<path fill="#8E9295" stroke="#A7A9AC" stroke-width="0.1276" d="M49.896,73.519c0.359-1.248,1.704-4.657,3.341-4.657
	c0.448,0,0.694,0.271,0.694,0.686C53.931,71.397,51.487,72.874,49.896,73.519z M53.819,74.682c-0.807,0.999-1.883,2.495-3.385,2.495
	c-0.763,0-1.099-0.54-1.099-1.186c0-0.665,0.18-1.31,0.382-1.911l0.359-0.146c1.793-0.686,5.088-1.912,5.088-4.096
	c0-0.872-0.695-1.434-1.615-1.434c-3.138,0-5.828,4.24-5.828,6.859c0,1.435,0.941,2.369,2.511,2.369
	c1.793,0,3.071-1.412,3.991-2.681L53.819,74.682z"/>
<path fill="#8E9295" stroke="#A7A9AC" stroke-width="0.1276" d="M56.294,71.46c0.403-0.957,1.682-3.056,2.87-3.056
	c1.121,0,1.502,1.102,1.48,1.933c-0.023,0.457-0.135,0.914-0.18,1.372l0.045,0.041c0.471-1.163,1.547-3.346,3.138-3.346
	c0.606,0,1.256,0.333,1.256,0.956c0,0.416-0.403,0.769-0.875,0.769c-0.425,0-0.74-0.249-0.74-0.665c0-0.124,0.045-0.438-0.157-0.438
	c-0.471,0-1.233,1.123-1.412,1.457c-0.829,1.475-1.48,3.325-2.041,4.904l-0.717,1.977h-1.659l1.143-3.431
	c0.269-1.02,0.651-2.723,0.651-3.763c0-0.187,0.044-1.145-0.359-1.145c-0.538,0-1.771,2.122-1.973,2.6L56.294,71.46z"/>
<path fill="#8E9295" stroke="#A7A9AC" stroke-width="0.1276" d="M69.39,68.404c0.829,0,2.174,0.333,2.174,1.31
	c0,0.312-0.224,0.54-0.561,0.54c-1.144,0,0-1.393-1.592-1.393c-0.762,0-1.502,0.499-1.502,1.268c0,1.456,2.556,2.723,2.601,4.782
	c0.044,1.809-1.615,2.722-3.431,2.722c-1.099,0-2.713-0.415-2.713-1.683c0-0.396,0.135-0.77,0.583-0.77
	c0.358,0,0.673,0.271,0.673,0.623c0,0.188-0.068,0.375-0.068,0.562c0,0.624,0.852,0.812,1.39,0.812c1.053,0,1.951-0.521,1.951-1.56
	c0-1.454-2.601-2.973-2.601-4.762C66.296,69.255,67.775,68.404,69.39,68.404z"/>
<path fill="#8E9295" stroke="#A7A9AC" stroke-width="0.1276" d="M74.928,71.938c0.201-0.498,0.829-1.995,0.829-2.493
	c0-0.21-0.135-0.418-0.381-0.418c-0.695,0-1.793,1.706-2.107,2.267l-0.449-0.228c0.65-1.02,1.57-2.661,3.004-2.661
	c0.853,0,1.39,0.686,1.39,1.412c0,1-0.649,2.246-1.053,3.182l-0.717,1.684c-0.135,0.354-0.673,1.601-0.673,1.975
	c0,0.167,0.136,0.354,0.337,0.354c0.852,0,2.062-1.851,2.398-2.494l0.449,0.208c-0.56,1.08-1.726,2.909-3.184,2.909
	c-0.918,0-1.457-0.686-1.457-1.495c0-0.874,0.627-1.996,0.986-2.808L74.928,71.938z M76.16,64.704c0-0.54,0.427-0.979,1.009-0.979
	c0.606,0,1.032,0.438,1.032,0.979c0,0.499-0.472,0.914-1.032,0.914C76.632,65.618,76.16,65.223,76.16,64.704z"/>
<path fill="#8E9295" stroke="#A7A9AC" stroke-width="0.1276" d="M84.547,65.785l-0.965,2.889h1.749l-0.157,0.458h-1.749l-0.179,0.54
	c-0.337,1.019-1.861,6.029-1.861,6.776c0,0.292,0.045,0.562,0.382,0.562c0.919,0,1.906-2.058,2.286-2.723l0.449,0.229
	c-0.65,1.186-1.479,3.117-3.229,3.117c-0.874,0-1.502-0.581-1.502-1.392c0-0.873,0.449-2.161,0.718-3.015l1.278-4.095h-1.771
	l0.179-0.458h1.771L83,65.785H84.547z"/>
<path fill="#8E9295" stroke="#A7A9AC" stroke-width="0.1276" d="M88.182,73.519c0.359-1.248,1.704-4.657,3.34-4.657
	c0.449,0,0.695,0.271,0.695,0.686C92.217,71.397,89.773,72.874,88.182,73.519z M92.105,74.682c-0.807,0.999-1.883,2.495-3.385,2.495
	c-0.762,0-1.099-0.54-1.099-1.186c0-0.665,0.18-1.31,0.381-1.911l0.359-0.146c1.793-0.686,5.088-1.912,5.088-4.096
	c0-0.872-0.695-1.434-1.614-1.434c-3.139,0-5.829,4.24-5.829,6.859c0,1.435,0.941,2.369,2.511,2.369
	c1.793,0,3.071-1.412,3.991-2.681L92.105,74.682z"/>
<path fill="#8E9295" stroke="#A7A9AC" stroke-width="0.1276" d="M99.845,65.785l-0.964,2.889h1.75l-0.157,0.458h-1.748l-0.18,0.54
	c-0.336,1.019-1.861,6.029-1.861,6.776c0,0.292,0.045,0.562,0.381,0.562c0.92,0,1.906-2.058,2.288-2.723l0.448,0.229
	c-0.65,1.186-1.479,3.117-3.228,3.117c-0.875,0-1.502-0.581-1.502-1.392c0-0.873,0.448-2.161,0.717-3.015l1.277-4.095h-1.77
	l0.179-0.458h1.771l1.055-2.889H99.845z"/>
<path fill="#8E9295" stroke="#A7A9AC" stroke-width="0.1276" d="M106.013,68.404c0.83,0,2.176,0.333,2.176,1.31
	c0,0.312-0.225,0.54-0.561,0.54c-1.144,0,0-1.393-1.593-1.393c-0.762,0-1.501,0.499-1.501,1.268c0,1.456,2.556,2.723,2.601,4.782
	c0.044,1.809-1.613,2.722-3.43,2.722c-1.099,0-2.713-0.415-2.713-1.683c0-0.396,0.135-0.77,0.583-0.77
	c0.358,0,0.673,0.271,0.673,0.623c0,0.188-0.066,0.375-0.066,0.562c0,0.624,0.852,0.812,1.389,0.812c1.054,0,1.952-0.521,1.952-1.56
	c0-1.454-2.602-2.973-2.602-4.762C102.919,69.255,104.4,68.404,106.013,68.404z"/>
<path fill="#8E9295" stroke="#A7A9AC" stroke-width="0.1276" d="M114.019,68.404c0.83,0,2.174,0.333,2.174,1.31
	c0,0.312-0.223,0.54-0.559,0.54c-1.145,0,0-1.393-1.593-1.393c-0.761,0-1.501,0.499-1.501,1.268c0,1.456,2.555,2.723,2.6,4.782
	c0.045,1.809-1.614,2.722-3.431,2.722c-1.098,0-2.712-0.415-2.712-1.683c0-0.396,0.136-0.77,0.583-0.77
	c0.359,0,0.673,0.271,0.673,0.623c0,0.188-0.066,0.375-0.066,0.562c0,0.624,0.851,0.812,1.39,0.812c1.054,0,1.95-0.521,1.95-1.56
	c0-1.454-2.6-2.973-2.6-4.762C110.925,69.255,112.404,68.404,114.019,68.404z"/>
<path fill="#8E9295" stroke="#A7A9AC" stroke-width="0.1276" d="M117.224,71.501c0.606-1.122,2.041-3.097,3.543-3.097
	c0.65,0,1.009,0.498,1.009,1.06c0,0.998-0.65,3.471-0.987,4.489l-2.017,6.196c-0.494,1.476-1.816,2.827-3.655,2.827
	c-0.74,0-1.86-0.271-1.86-1.102c0-0.292,0.246-0.562,0.583-0.562c0.919,0,0.449,1.206,1.458,1.206c1.12,0,1.815-1.643,2.062-2.475
	l1.367-4.469c0.427-1.602,1.525-5.821,1.525-6.029c0-0.146-0.067-0.312-0.247-0.312c-0.605,0-2.04,1.997-2.354,2.516L117.224,71.501
	z M120.902,64.704c0-0.54,0.448-0.979,1.032-0.979c0.583,0,1.009,0.438,1.009,0.979c0,0.499-0.471,0.914-1.009,0.914
	C121.372,65.618,120.902,65.223,120.902,64.704z"/>
<path fill="#8E9295" stroke="#A7A9AC" stroke-width="0.1276" d="M126.437,75.098c-0.112,0.312-0.314,0.894-0.314,1.227
	c0,0.438,0.336,0.686,0.806,0.686c1.458,0,2.894-2.411,3.408-3.491l1.817-5.011h1.658l-0.851,2.62
	c-0.471,1.538-1.256,3.699-1.256,5.279c0,0.208,0.068,0.603,0.38,0.603c0.741,0,1.816-1.996,2.018-2.619l0.494,0.166
	c-0.449,1.145-1.39,3.076-2.915,3.076c-1.054,0-1.592-0.686-1.502-1.58c0.045-0.415,0.067-0.851,0.112-1.268l-0.044-0.04
	c-0.808,1.225-1.929,2.888-3.7,2.888c-1.054,0-1.882-0.706-1.882-1.725c0-0.706,0.2-1.267,0.425-1.934l0.403-1.227
	c0.292-0.913,0.717-1.912,0.808-2.826c0.022-0.208,0.157-0.896-0.247-0.896c-0.829,0-2.107,2.163-2.443,2.786l-0.472-0.207
	c0.628-1.205,1.75-3.201,3.408-3.201c0.875,0,1.367,0.811,1.367,1.538c0,0.748-0.292,1.684-0.536,2.411L126.437,75.098z"/>
<path fill="#8E9295" stroke="#A7A9AC" stroke-width="0.1276" d="M138.5,73.206c0.427-1.331,1.838-4.18,3.587-4.18
	c0.448,0,0.74,0.25,0.74,0.646C142.827,71.397,140.002,72.645,138.5,73.206z M140.114,73.04c0.65,0.146,0.763,0.437,0.763,1.04
	c0,0.705-0.113,1.413-0.113,2.119c0,0.79,0.539,1.434,1.435,1.434c1.593,0,2.153-1.559,2.69-2.681l-0.424-0.167
	c-0.336,0.541-0.965,2.225-1.704,2.225c-0.471,0-0.336-0.706-0.292-0.957l0.022-0.602c0.089-1.393-0.112-2.266-1.748-2.683
	c1.277-0.728,3.699-1.476,3.699-3.097c0-0.77-0.898-1.268-1.682-1.268c-1.547,0-2.668,1.102-3.475,2.162l-0.045-0.043l1.209-4.447
	c0.248-0.854,0.517-1.706,0.763-2.558l-3.654,0.207l-0.158,0.458c0.269,0,1.704-0.145,1.704,0.437c0,0.229-0.089,0.541-0.156,0.77
	l-3.408,11.975h1.682l1.121-3.577L140.114,73.04z"/>
<path fill="#8E9295" stroke="#A7A9AC" stroke-width="0.1276" d="M152.744,72.271c0.225-0.604,0.741-1.912,0.741-2.516
	c0-0.374-0.269-0.644-0.673-0.644c-2.442,0-4.5,5.592-5.059,7.171l-0.38,1.082h-1.501l3.56-11.33
	c0.089-0.333,0.269-0.873,0.269-1.186c0-0.665-0.74-0.645-1.253-0.665h-0.336l0.133-0.458l3.627-0.207l-2.44,7.692l0.044,0.04
	c0.873-1.162,2.015-2.764,3.763-2.764c1.254,0,1.614,0.789,1.59,1.786c0,0.958-0.38,2.101-0.717,2.953l-0.986,2.454
	c-0.068,0.187-0.583,1.329,0.067,1.329c0.896,0,2.04-1.954,2.399-2.641l0.493,0.188c-0.561,1.207-1.637,3.076-3.25,3.076
	c-1.032,0-1.299-0.603-1.299-1.371c0.022-1.019,0.536-2.328,0.761-2.889L152.744,72.271z"/>
<path fill="#8E9295" stroke="#A7A9AC" stroke-width="0.1276" d="M160.094,75.098c-0.113,0.312-0.315,0.894-0.315,1.227
	c0,0.438,0.337,0.686,0.808,0.686c1.457,0,2.891-2.411,3.407-3.491l1.816-5.011h1.66l-0.852,2.62
	c-0.472,1.538-1.255,3.699-1.255,5.279c0,0.208,0.066,0.603,0.38,0.603c0.74,0,1.815-1.996,2.019-2.619l0.493,0.166
	c-0.448,1.145-1.391,3.076-2.914,3.076c-1.054,0-1.593-0.686-1.502-1.58c0.045-0.415,0.066-0.851,0.111-1.268l-0.045-0.04
	c-0.806,1.225-1.927,2.888-3.698,2.888c-1.054,0-1.884-0.706-1.884-1.725c0-0.706,0.203-1.267,0.427-1.934l0.403-1.227
	c0.292-0.913,0.718-1.912,0.807-2.826c0.022-0.208,0.157-0.896-0.247-0.896c-0.83,0-2.108,2.163-2.444,2.786l-0.471-0.207
	c0.629-1.205,1.749-3.201,3.408-3.201c0.873,0,1.368,0.811,1.368,1.538c0,0.748-0.292,1.684-0.539,2.411L160.094,75.098z"/>
<path fill="#8E9295" stroke="#A7A9AC" stroke-width="0.1276" d="M173.723,68.404c0.83,0,2.175,0.333,2.175,1.31
	c0,0.312-0.224,0.54-0.561,0.54c-1.144,0,0-1.393-1.592-1.393c-0.762,0-1.501,0.499-1.501,1.268c0,1.456,2.555,2.723,2.599,4.782
	c0.046,1.809-1.613,2.722-3.43,2.722c-1.098,0-2.712-0.415-2.712-1.683c0-0.396,0.135-0.77,0.583-0.77
	c0.358,0,0.673,0.271,0.673,0.623c0,0.188-0.067,0.375-0.067,0.562c0,0.624,0.851,0.812,1.389,0.812c1.054,0,1.951-0.521,1.951-1.56
	c0-1.454-2.601-2.973-2.601-4.762C170.628,69.255,172.108,68.404,173.723,68.404z"/>
<path fill="#8E9295" stroke="#A7A9AC" stroke-width="0.1276" d="M178.721,73.519c0.357-1.248,1.703-4.657,3.34-4.657
	c0.448,0,0.694,0.271,0.694,0.686C182.755,71.397,180.311,72.874,178.721,73.519z M182.644,74.682
	c-0.808,0.999-1.884,2.495-3.386,2.495c-0.762,0-1.099-0.54-1.099-1.186c0-0.665,0.179-1.31,0.381-1.911l0.359-0.146
	c1.793-0.686,5.089-1.912,5.089-4.096c0-0.872-0.694-1.434-1.615-1.434c-3.138,0-5.828,4.24-5.828,6.859
	c0,1.435,0.942,2.369,2.512,2.369c1.794,0,3.07-1.412,3.99-2.681L182.644,74.682z"/>
<path fill="#8E9295" stroke="#A7A9AC" stroke-width="0.1276" d="M189.908,65.785l-0.963,2.889h1.748l-0.158,0.458h-1.748
	l-0.179,0.54c-0.337,1.019-1.862,6.029-1.862,6.776c0,0.292,0.047,0.562,0.383,0.562c0.918,0,1.905-2.058,2.285-2.723l0.448,0.229
	c-0.649,1.186-1.479,3.117-3.228,3.117c-0.874,0-1.502-0.581-1.502-1.392c0-0.873,0.448-2.161,0.718-3.015l1.278-4.095h-1.771
	l0.18-0.458h1.77l1.055-2.889H189.908z"/>
</svg>
